<?xml version="1.0" encoding="UTF-8"?>
<svg width="106px" height="108px" viewBox="0 0 106 108" version="1.1" xmlns="http://www.w3.org/2000/svg" xmlns:xlink="http://www.w3.org/1999/xlink">
    <!-- Generator: Sketch 52.6 (67491) - http://www.bohemiancoding.com/sketch -->
    <title>24</title>
    <desc>Created with Sketch.</desc>
    <g id="Page-1" stroke="none" stroke-width="1" fill="none" fill-rule="evenodd">
        <g id="Главный-экран-/-промокод" transform="translate(-1117.000000, -4094.000000)" fill="#FFCB1F" fill-rule="nonzero">
            <g id="Group-17" transform="translate(0.000000, 3964.000000)">
                <g id="24" transform="translate(1117.000000, 130.000000)">
                    <path d="M25.5,51.8 C39.6,51.8 51,40.4 51,26.3 C51,12.2 39.6,0.7 25.5,0.7 C11.4,0.7 0,12.2 0,26.3 C0,40.4 11.5,51.8 25.5,51.8 Z M25.5,3.6 C38,3.6 48.2,13.8 48.2,26.3 C48.2,38.8 38,49 25.5,49 C13,49 2.9,38.8 2.9,26.3 C2.9,13.8 13,3.6 25.5,3.6 Z" id="Shape"></path>
                    <path d="M25.5,107.1 C39.6,107.1 51,95.7 51,81.6 C51,67.5 39.6,56.1 25.5,56.1 C11.4,56.1 0,67.5 0,81.6 C0,95.7 11.5,107.1 25.5,107.1 Z M25.5,59 C38,59 48.2,69.1 48.2,81.6 C48.2,94.1 38,104.3 25.5,104.3 C13,104.3 2.8,94.1 2.8,81.6 C2.9,69.1 13,59 25.5,59 Z" id="Shape"></path>
                    <path d="M55,81.6 C55,95.7 66.4,107.1 80.5,107.1 C94.6,107.1 106,95.7 106,81.6 C106,67.5 94.6,56.1 80.5,56.1 C66.4,56.1 55,67.5 55,81.6 Z M103.2,81.6 C103.2,94.1 93,104.3 80.5,104.3 C68,104.3 57.8,94.1 57.8,81.6 C57.8,69.1 68,59 80.5,59 C93,59 103.2,69.1 103.2,81.6 Z" id="Shape"></path>
                    <path d="M80.3,0.7 C66.2,0.7 54.8,12.1 54.8,26.2 C54.8,40.3 66.2,51.7 80.3,51.7 C94.4,51.7 105.8,40.3 105.8,26.2 C105.8,12.1 94.3,0.7 80.3,0.7 Z M80.3,48.9 C67.8,48.9 57.6,38.7 57.6,26.2 C57.6,13.7 67.8,3.5 80.3,3.5 C92.8,3.5 103,13.7 103,26.2 C102.9,38.8 92.8,48.9 80.3,48.9 Z" id="Shape"></path>
                    <path d="M25.8,45.8 C36.6,45.8 45.3,37.1 45.3,26.3 C45.3,15.5 36.6,6.8 25.8,6.8 C15,6.8 6.3,15.5 6.3,26.3 C6.3,37.1 15,45.8 25.8,45.8 Z M25.8,9.8 C34.9,9.8 42.3,17.2 42.3,26.3 C42.3,35.4 34.9,42.8 25.8,42.8 C16.7,42.8 9.3,35.4 9.3,26.3 C9.3,17.2 16.7,9.8 25.8,9.8 Z" id="Shape"></path>
                    <path d="M25.5,27.8 L37.8,27.8 C38.6,27.8 39.3,27.1 39.3,26.3 C39.3,25.5 38.6,24.8 37.8,24.8 L27,24.8 L27,12.1 C27,11.3 26.3,10.6 25.5,10.6 C24.7,10.6 24,11.3 24,12.1 L24,26.3 C24,27.1 24.7,27.8 25.5,27.8 Z" id="Shape"></path>
                    <path d="M80.3,6.8 C69.5,6.8 60.8,15.5 60.8,26.3 C60.8,37.1 69.5,45.8 80.3,45.8 C91.1,45.8 99.8,37.1 99.8,26.3 C99.8,15.5 91,6.8 80.3,6.8 Z M80.3,42.8 C71.2,42.8 63.8,35.4 63.8,26.3 C63.8,17.2 71.2,9.8 80.3,9.8 C89.4,9.8 96.8,17.2 96.8,26.3 C96.8,35.4 89.4,42.8 80.3,42.8 Z" id="Shape"></path>
                    <path d="M81.7,25.3 C81.2,24.7 80.5,24.6 79.8,24.9 L66.8,31.8 C66.1,32.2 65.8,33.1 66.2,33.8 C66.6,34.5 67.5,34.8 68.2,34.4 L80.1,28.1 L87.1,36.8 C87.4,37.2 87.8,37.4 88.3,37.4 C88.6,37.4 89,37.3 89.2,37.1 C89.8,36.6 90,35.6 89.4,35 L81.7,25.3 Z" id="Shape"></path>
                    <path d="M60.8,81.6 C60.8,92.4 69.5,101.1 80.3,101.1 C91.1,101.1 99.8,92.4 99.8,81.6 C99.8,70.8 91,62.1 80.3,62.1 C69.6,62.1 60.8,70.8 60.8,81.6 Z M96.8,81.6 C96.8,90.7 89.4,98.1 80.3,98.1 C71.2,98.1 63.8,90.7 63.8,81.6 C63.8,72.5 71.2,65.1 80.3,65.1 C89.4,65.1 96.8,72.5 96.8,81.6 Z" id="Shape"></path>
                    <path d="M68.5,86.3 C67.8,86.7 67.5,87.6 67.9,88.3 C68.2,88.8 68.7,89.1 69.2,89.1 C69.4,89.1 69.7,89 69.9,88.9 L80.8,83.1 L94.4,83.1 C95.2,83.1 95.9,82.4 95.9,81.6 C95.9,80.8 95.2,80.1 94.4,80.1 L80.4,80.1 C80.2,80.1 79.9,80.2 79.7,80.3 L68.5,86.3 Z" id="Shape"></path>
                    <path d="M25.5,101.1 C36.3,101.1 45,92.4 45,81.6 C45,70.8 36.3,62.1 25.5,62.1 C14.7,62.1 6,70.8 6,81.6 C6,92.4 14.8,101.1 25.5,101.1 Z M25.5,65.1 C34.6,65.1 42,72.5 42,81.6 C42,90.7 34.6,98.1 25.5,98.1 C16.4,98.1 9,90.7 9,81.6 C9,72.5 16.4,65.1 25.5,65.1 Z" id="Shape"></path>
                    <path d="M13,83.1 L25.8,83.1 C26.3,83.1 26.7,82.9 27,82.5 C27.3,82.1 27.4,81.6 27.2,81.2 L22.9,67.5 C22.7,66.7 21.8,66.3 21,66.5 C20.2,66.7 19.8,67.6 20,68.4 L23.7,80.1 L13,80.1 C12.2,80.1 11.5,80.8 11.5,81.6 C11.5,82.4 12.2,83.1 13,83.1 Z" id="Shape"></path>
                </g>
            </g>
        </g>
    </g>
</svg>