<?xml version="1.0" encoding="UTF-8"?>
<svg width="88px" height="107px" viewBox="0 0 88 107" version="1.1" xmlns="http://www.w3.org/2000/svg" xmlns:xlink="http://www.w3.org/1999/xlink">
    <!-- Generator: Sketch 52.6 (67491) - http://www.bohemiancoding.com/sketch -->
    <title>45 min</title>
    <desc>Created with Sketch.</desc>
    <g id="Page-1" stroke="none" stroke-width="1" fill="none" fill-rule="evenodd">
        <g id="Главный-экран-/-промокод" transform="translate(-266.000000, -4094.000000)" fill="#FFCB1F" fill-rule="nonzero">
            <g id="Group-17" transform="translate(0.000000, 3964.000000)">
                <g id="45-min" transform="translate(266.000000, 130.000000)">
                    <path d="M44.4,29.3 C25.8,29.3 10.6,44.5 10.6,63.1 C10.6,81.7 25.8,96.9 44.4,96.9 C63,96.9 78.2,81.7 78.2,63.1 C78.2,44.5 63,29.3 44.4,29.3 Z M44.4,93.9 C27.4,93.9 13.6,80.1 13.6,63.1 C13.6,46.1 27.4,32.3 44.4,32.3 C61.4,32.3 75.2,46.1 75.2,63.1 C75.2,80.1 61.4,93.9 44.4,93.9 Z" id="Shape"></path>
                    <path d="M44.4,36.8 C44.4,36.8 44.4,36.8 44.4,36.8 C44.4,36.8 44.4,36.8 44.4,36.8 C44.3,36.8 44.2,36.8 44.1,36.8 C44.1,36.8 44,36.8 44,36.8 C43.9,36.8 43.9,36.8 43.8,36.8 C43.8,36.8 43.7,36.8 43.7,36.9 C43.7,36.9 43.6,36.9 43.6,37 C43.6,37 43.5,37.1 43.5,37.1 C43.5,37.1 43.4,37.2 43.4,37.2 C43.4,37.2 43.3,37.3 43.3,37.3 C43.3,37.3 43.2,37.4 43.2,37.4 C43.2,37.4 43.2,37.5 43.1,37.5 C43.1,37.5 43,37.6 43,37.6 C43,37.6 43,37.7 43,37.7 C43,37.8 43,37.8 42.9,37.9 C42.9,37.9 42.9,38 42.9,38 C42.9,38.1 42.9,38.1 42.9,38.2 L42.6,61.5 L26.6,61.5 C25.8,61.5 25.1,62.2 25.1,63 C25.1,63.8 25.8,64.5 26.6,64.5 L44,64.5 C44.8,64.5 45.5,63.8 45.5,63 L45.8,39.7 C58,40.6 67.7,50.7 67.7,63.1 C67.7,76 57.2,86.4 44.4,86.4 C31.6,86.4 21.1,75.9 21.1,63.1 C21.1,62.3 20.4,61.6 19.6,61.6 C18.8,61.6 18.1,62.3 18.1,63.1 C18.1,77.6 29.9,89.4 44.4,89.4 C58.9,89.4 70.7,77.6 70.7,63.1 C70.7,48.6 58.9,36.8 44.4,36.8 Z" id="Shape"></path>
                    <path d="M81.9,36.2 C84.7,33.4 84.7,28.8 81.9,25.9 C80.5,24.5 78.7,23.8 76.8,23.8 C74.9,23.8 73,24.6 71.6,26 L69.4,28.2 C64.2,24.4 58.2,21.8 51.6,20.6 L51.6,14.6 L59.1,14.6 C59.9,14.6 60.6,13.9 60.6,13.1 L60.6,6.2 C60.6,2.9 57.9,0.1 54.5,0.1 L33.4,0.1 C30.1,0.1 27.3,2.8 27.3,6.2 L27.3,13.1 C27.3,13.9 28,14.6 28.8,14.6 L37.1,14.6 L37.1,20.5 C30.6,21.5 24.6,24 19.4,27.7 L17.2,25.5 C15.8,24.1 14,23.4 12.1,23.4 C10.2,23.4 8.3,24.2 7,25.5 C5.6,26.9 4.9,28.7 4.9,30.6 C4.9,32.5 5.7,34.4 7,35.7 L9.1,37.8 C3.9,44.9 0.9,53.7 0.9,63.1 C0.9,86.9 20.3,106.3 44.1,106.3 C67.9,106.3 87.3,86.9 87.3,63.1 C87.3,54 84.5,45.6 79.7,38.6 L81.9,36.2 Z M73.7,28.1 C74.5,27.3 75.6,26.9 76.7,26.9 C77.8,26.9 78.9,27.3 79.7,28.1 C81.4,29.8 81.4,32.5 79.7,34.1 L77.7,36.1 C76.7,34.9 75.7,33.7 74.6,32.6 C73.7,31.7 72.8,30.8 71.7,30 L73.7,28.1 Z M30.4,6.2 C30.4,4.5 31.8,3.1 33.5,3.1 L54.6,3.1 C56.3,3.1 57.7,4.5 57.7,6.2 L57.7,11.6 L50.2,11.6 L38.6,11.6 L30.3,11.6 L30.3,6.2 L30.4,6.2 Z M40.1,20.1 L40.1,14.6 L48.6,14.6 L48.6,20.2 C48.6,20.2 48.6,20.2 48.5,20.2 C47.8,20.1 47.1,20.1 46.4,20 C46.3,20 46.3,20 46.2,20 C45.4,20 44.7,19.9 43.9,19.9 C43.2,19.9 42.6,19.9 41.9,20 C41.3,20 40.8,20.1 40.2,20.1 C40.2,20.1 40.2,20.1 40.1,20.1 Z M9.1,33.6 C8.3,32.8 7.9,31.7 7.9,30.6 C7.9,29.5 8.3,28.4 9.1,27.6 C9.9,26.8 11,26.4 12.1,26.4 C13.2,26.4 14.3,26.8 15.1,27.6 L17,29.5 C14.8,31.3 12.8,33.3 10.9,35.4 L9.1,33.6 Z M44,103.2 C21.9,103.2 3.8,85.2 3.8,63 C3.8,54 6.8,45.7 11.8,39 C12,38.9 12.2,38.8 12.3,38.6 C13.4,37.2 14.5,35.9 15.7,34.7 C17.1,33.3 18.6,32 20.2,30.8 C20.4,30.7 20.5,30.5 20.6,30.4 C25.9,26.6 32.1,24.1 38.8,23.2 C40.6,23 42.4,22.9 44.2,22.9 C44.4,22.9 44.6,22.9 44.8,22.9 C45.5,22.9 46.1,22.9 46.7,23 C46.9,23 47.2,23 47.4,23.1 C48.2,23.2 48.9,23.3 49.7,23.4 C69.1,26.2 84.1,43 84.1,63.1 C84.2,85.2 66.1,103.2 44,103.2 Z" id="Shape"></path>
                </g>
            </g>
        </g>
    </g>
</svg>