<?xml version="1.0" encoding="UTF-8"?>
<svg width="108px" height="91px" viewBox="0 0 108 91" version="1.1" xmlns="http://www.w3.org/2000/svg" xmlns:xlink="http://www.w3.org/1999/xlink">
    <!-- Generator: Sketch 52.6 (67491) - http://www.bohemiancoding.com/sketch -->
    <title>Dostavka</title>
    <desc>Created with Sketch.</desc>
    <g id="Page-1" stroke="none" stroke-width="1" fill="none" fill-rule="evenodd">
        <g id="Главный-экран-/-промокод" transform="translate(-686.000000, -4102.000000)" fill="#FFCB1F" fill-rule="nonzero">
            <g id="Group-17" transform="translate(0.000000, 3964.000000)">
                <g id="Dostavka" transform="translate(686.000000, 138.000000)">
                    <path d="M98.2,51.3 L96.9,51.3 L96.5,49.7 L90.9,27.1 L88.8,18.8 C88.6,18.1 88,17.7 87.3,17.7 L63.5,17.7 L63.5,11.2 C63.5,5 58.5,0 52.3,0 L2.2,0 C1.4,0 0.7,0.7 0.7,1.5 L0.7,52.8 L0.7,78.6 C0.7,79.4 1.4,80.1 2.2,80.1 L11.3,80.1 C12,85.8 16.9,90.1 22.7,90.1 C28.5,90.1 33.4,85.7 34.1,80.1 L71.6,80.1 C72.3,85.8 77.2,90.1 83,90.1 C88.8,90.1 93.7,85.7 94.4,80.1 L105.8,80.1 C106.6,80.1 107.3,79.4 107.3,78.6 L107.3,67.7 L107.3,60.5 L107.3,60.2 C107.3,60.1 107.3,60 107.3,59.9 C107,55 103,51.3 98.2,51.3 Z M104.3,66.2 L97.8,66.2 L97.8,61.7 L104.3,61.7 L104.3,66.2 Z M93.7,51.3 L74.5,51.3 L74.5,38.3 C74.5,33.1 78.7,29 83.8,29 L88.1,29 L93.7,51.3 Z M3.7,2.9 L52.4,2.9 C56.9,2.9 60.6,6.6 60.6,11.1 L60.6,17.6 L19.4,17.6 C18.6,17.6 17.9,18.3 17.9,19.1 C17.9,19.9 18.6,20.6 19.4,20.6 L60.5,20.6 L60.5,51.2 L3.7,51.2 L3.7,2.9 Z M22.7,87.1 C18,87.1 14.2,83.3 14.2,78.6 C14.2,73.9 18,70 22.7,70 C27.4,70 31.2,73.8 31.2,78.5 C31.2,83.2 27.4,87.1 22.7,87.1 Z M83.1,87.1 C78.4,87.1 74.6,83.3 74.6,78.6 C74.6,73.9 78.4,70.1 83.1,70.1 C87.5,70.1 91.1,73.5 91.6,77.8 L91.6,78.7 C91.6,83.2 87.8,87.1 83.1,87.1 Z M94.5,77 C94.5,76.8 94.4,76.7 94.4,76.5 C94.4,76.4 94.4,76.2 94.3,76.1 C94.2,75.9 94.2,75.6 94.1,75.4 C94.1,75.3 94,75.2 94,75 C93.9,74.7 93.8,74.5 93.7,74.2 C93.7,74.1 93.6,74 93.6,74 C93.5,73.7 93.3,73.3 93.1,73 C93.1,72.9 93,72.9 93,72.8 C92.9,72.6 92.7,72.3 92.6,72.1 C92.5,72 92.4,71.9 92.4,71.8 C92.3,71.6 92.1,71.4 92,71.3 C91.9,71.2 91.8,71.1 91.7,71 C91.6,70.8 91.4,70.7 91.3,70.5 C91.2,70.4 91.1,70.3 91,70.2 C90.9,70.1 90.7,69.9 90.5,69.8 C90.4,69.7 90.3,69.6 90.1,69.5 C89.9,69.4 89.8,69.3 89.6,69.1 C89.5,69 89.3,68.9 89.2,68.8 C89,68.7 88.9,68.6 88.7,68.5 C88.6,68.4 88.4,68.3 88.3,68.3 C88.1,68.2 87.9,68.1 87.7,68 C87.6,67.9 87.4,67.9 87.3,67.8 C87.1,67.7 86.9,67.7 86.7,67.6 C86.6,67.6 86.4,67.5 86.3,67.5 C86.1,67.4 85.9,67.4 85.7,67.3 C85.6,67.3 85.4,67.2 85.3,67.2 C85.1,67.2 84.8,67.1 84.6,67.1 C84.5,67.1 84.4,67.1 84.2,67 C83.8,67 83.4,66.9 83.1,66.9 C82.8,66.9 82.3,66.9 82,67 C81.9,67 81.8,67 81.6,67.1 C81.4,67.1 81.1,67.2 80.9,67.2 C80.8,67.2 80.6,67.3 80.5,67.3 C80.3,67.4 80.1,67.4 79.9,67.5 C79.8,67.5 79.6,67.6 79.5,67.6 C79.3,67.7 79.1,67.7 78.9,67.8 C78.8,67.9 78.6,67.9 78.5,68 C78.3,68.1 78.1,68.2 78,68.3 C77.9,68.4 77.7,68.5 77.6,68.5 C77.4,68.6 77.3,68.7 77.1,68.8 C77,68.9 76.8,69 76.7,69.1 C76.5,69.2 76.4,69.3 76.2,69.5 C76.1,69.6 76,69.7 75.8,69.8 C75.6,69.9 75.5,70.1 75.4,70.2 C75.3,70.3 75.2,70.4 75.1,70.5 C75,70.6 74.8,70.8 74.7,71 C74.6,71.1 74.5,71.2 74.4,71.3 C74.3,71.5 74.1,71.6 74,71.8 C73.9,71.9 73.8,72 73.8,72.1 C73.7,72.3 73.5,72.5 73.4,72.8 C73.4,72.9 73.3,73 73.3,73 C73.1,73.3 73,73.6 72.8,74 C72.8,74.1 72.7,74.2 72.7,74.2 C72.6,74.5 72.5,74.7 72.4,75 C72.4,75.1 72.3,75.2 72.3,75.4 C72.2,75.6 72.2,75.9 72.1,76.1 C72.1,76.2 72,76.4 72,76.5 C72,76.7 71.9,76.8 71.9,77 L34.1,77 C34.1,76.8 34,76.7 34,76.5 C34,76.4 34,76.2 33.9,76.1 C33.9,75.9 33.8,75.6 33.7,75.4 C33.7,75.3 33.6,75.1 33.6,75 C33.5,74.7 33.4,74.5 33.3,74.2 C33.3,74.1 33.2,74 33.2,74 C33.1,73.7 32.9,73.3 32.7,73 C32.7,72.9 32.6,72.8 32.6,72.8 C32.5,72.6 32.3,72.3 32.2,72.1 C32.1,72 32,71.9 32,71.8 C31.9,71.6 31.7,71.4 31.6,71.3 C31.5,71.2 31.4,71.1 31.3,71 C31.2,70.8 31,70.7 30.9,70.5 C30.8,70.4 30.7,70.3 30.6,70.2 C30.5,70.1 30.3,69.9 30.2,69.8 C30.1,69.7 30,69.6 29.8,69.5 C29.6,69.4 29.5,69.3 29.3,69.1 C29.2,69 29,68.9 28.9,68.8 C28.7,68.7 28.6,68.6 28.4,68.5 C28.3,68.4 28.1,68.3 28,68.3 C27.8,68.2 27.6,68.1 27.5,68 C27.4,67.9 27.2,67.9 27.1,67.8 C26.9,67.7 26.7,67.7 26.5,67.6 C26.4,67.5 26.2,67.5 26.1,67.5 C25.9,67.4 25.7,67.4 25.5,67.3 C25.4,67.3 25.2,67.2 25.1,67.2 C24.9,67.2 24.6,67.1 24.4,67.1 C24.3,67.1 24.2,67.1 24,67 C23.6,67 23.2,66.9 22.9,66.9 C22.6,66.9 22.1,66.9 21.8,67 C21.7,67 21.6,67 21.4,67.1 C21.2,67.1 20.9,67.2 20.7,67.2 C20.6,67.2 20.4,67.3 20.3,67.3 C20.1,67.4 19.9,67.4 19.7,67.5 C19.6,67.5 19.4,67.6 19.3,67.6 C19.1,67.7 18.9,67.7 18.7,67.8 C18.6,67.9 18.4,67.9 18.3,68 C18.1,68.1 17.9,68.2 17.8,68.3 C17.7,68.4 17.5,68.5 17.4,68.5 C17.2,68.6 17.1,68.7 16.9,68.8 C16.8,68.9 16.6,69 16.5,69.1 C16.3,69.2 16.2,69.3 16,69.5 C15.9,69.6 15.8,69.7 15.6,69.8 C15.4,69.9 15.3,70.1 15.2,70.2 C15.1,70.3 15,70.4 14.9,70.5 C14.8,70.6 14.6,70.8 14.5,71 C14.4,71.1 14.3,71.2 14.2,71.3 C14.1,71.5 13.9,71.6 13.8,71.8 C13.7,71.9 13.6,72 13.6,72.1 C13.5,72.3 13.3,72.5 13.2,72.8 C13.2,72.9 13.1,73 13.1,73 C12.9,73.3 12.8,73.6 12.6,74 C12.6,74.1 12.5,74.2 12.5,74.2 C12.4,74.5 12.3,74.7 12.2,75 C12.2,75.1 12.1,75.2 12.1,75.4 C12,75.6 12,75.9 11.9,76.1 C11.9,76.2 11.8,76.4 11.8,76.5 C11.8,76.7 11.7,76.8 11.7,77 L4.1,77 L4.1,54.3 L62,54.3 C62.8,54.3 63.5,53.6 63.5,52.8 L63.5,20.6 L86.2,20.6 L87.5,25.9 L83.9,25.9 C77.1,25.9 71.6,31.4 71.6,38.2 L71.6,52.7 C71.6,53.5 72.3,54.2 73.1,54.2 L95.7,54.2 L98.2,54.2 C101,54.2 103.3,56 104.1,58.5 L96.4,58.5 C95.6,58.5 94.9,59.2 94.9,60 L94.9,67.5 C94.9,68.3 95.6,69 96.4,69 L104.4,69 L104.4,77 L94.5,77 Z" id="Shape"></path>
                    <path d="M90.3,58.6 L32.2,58.6 C31.4,58.6 30.7,59.3 30.7,60.1 C30.7,60.9 31.4,61.6 32.2,61.6 L90.4,61.6 C91.2,61.6 91.9,60.9 91.9,60.1 C91.9,59.3 91.2,58.6 90.3,58.6 Z" id="Shape"></path>
                    <path d="M24,58.6 L14.8,58.6 C14,58.6 13.3,59.3 13.3,60.1 C13.3,60.9 14,61.6 14.8,61.6 L24,61.6 C24.8,61.6 25.5,60.9 25.5,60.1 C25.5,59.3 24.8,58.6 24,58.6 Z" id="Shape"></path>
                    <path d="M29.5,28.7 L21.5,28.7 C20.8,28.7 20.3,29.2 20.3,29.9 L20.3,35.7 L20.3,41.5 C20.3,42.2 20.8,42.7 21.5,42.7 C22.2,42.7 22.7,42.2 22.7,41.5 L22.7,38 L28.8,42.4 C29,42.6 29.3,42.6 29.5,42.6 C29.9,42.6 30.2,42.4 30.5,42.1 C30.9,41.6 30.8,40.8 30.2,40.4 L25.2,36.8 L29.5,36.8 C30.2,36.8 30.7,36.3 30.7,35.6 L30.7,29.8 C30.7,29.3 30.2,28.7 29.5,28.7 Z M28.3,34.5 L22.7,34.5 L22.7,31.1 L28.3,31.1 L28.3,34.5 Z" id="Shape"></path>
                    <path d="M42.3,31.1 C43,31.1 43.5,30.6 43.5,29.9 C43.5,29.2 43,28.7 42.3,28.7 L34.3,28.7 C33.6,28.7 33.1,29.2 33.1,29.9 L33.1,41.5 C33.1,42.2 33.6,42.7 34.3,42.7 L42.3,42.7 C43,42.7 43.5,42.2 43.5,41.5 C43.5,40.8 43,40.3 42.3,40.3 L35.5,40.3 L35.5,36.9 L40.3,36.9 C41,36.9 41.5,36.4 41.5,35.7 C41.5,35 41,34.5 40.3,34.5 L35.5,34.5 L35.5,31.1 L42.3,31.1 Z" id="Shape"></path>
                    <path d="M16.7,28.7 L8.7,28.7 C8,28.7 7.5,29.2 7.5,29.9 L7.5,41.5 C7.5,42.2 8,42.7 8.7,42.7 C9.4,42.7 9.9,42.2 9.9,41.5 L9.9,36.9 L14.7,36.9 C15.4,36.9 15.9,36.4 15.9,35.7 C15.9,35 15.4,34.5 14.7,34.5 L9.9,34.5 L9.9,31.1 L16.7,31.1 C17.4,31.1 17.9,30.6 17.9,29.9 C17.9,29.2 17.4,28.7 16.7,28.7 Z" id="Shape"></path>
                    <path d="M55.1,31.1 C55.8,31.1 56.3,30.6 56.3,29.9 C56.3,29.2 55.8,28.7 55.1,28.7 L47.1,28.7 C46.4,28.7 45.9,29.2 45.9,29.9 L45.9,41.5 C45.9,42.2 46.4,42.7 47.1,42.7 L55.1,42.7 C55.8,42.7 56.3,42.2 56.3,41.5 C56.3,40.8 55.8,40.3 55.1,40.3 L48.3,40.3 L48.3,36.9 L53.1,36.9 C53.8,36.9 54.3,36.4 54.3,35.7 C54.3,35 53.8,34.5 53.1,34.5 L48.3,34.5 L48.3,31.1 L55.1,31.1 Z" id="Shape"></path>
                </g>
            </g>
        </g>
    </g>
</svg>