<?xml version="1.0" encoding="UTF-8"?>
<svg width="82px" height="106px" viewBox="0 0 82 106" version="1.1" xmlns="http://www.w3.org/2000/svg" xmlns:xlink="http://www.w3.org/1999/xlink">
    <!-- Generator: Sketch 52.6 (67491) - http://www.bohemiancoding.com/sketch -->
    <title>ok</title>
    <desc>Created with Sketch.</desc>
    <g id="Page-1" stroke="none" stroke-width="1" fill="none" fill-rule="evenodd">
        <g id="Главный-экран-/-промокод" transform="translate(-156.000000, -2544.000000)" fill="#FFCB1F" fill-rule="nonzero">
            <g id="ok" transform="translate(156.000000, 2544.000000)">
                <path d="M12.21,55.59 C13.8831021,58.7679181 15.0312571,62.1954985 15.61,65.74 C15.94,67.88 16.2,70.07 16.41,71.85 C16.7954187,75.9697949 17.4907204,80.054692 18.49,84.07 C19.1119348,86.539504 20.223964,88.858782 21.76,90.89 L21.81,90.96 L21.81,100.72 C21.815502,103.506756 24.0732442,105.764498 26.86,105.77 L55.14,105.77 C57.9267558,105.764498 60.184498,103.506756 60.19,100.72 L60.19,90.79 L60.19,90.73 C60.6369455,90.0560497 61.0154894,89.3391612 61.32,88.59 C61.6152197,87.8105984 62.0757821,87.1044027 62.67,86.52 L79.85,70.29 C80.8188649,69.3382345 81.3662733,68.0381395 81.37,66.68 L81.37,53 C81.3901779,50.4669944 79.512908,48.3190885 77,48 L76.72,48 L76.79,47.72 C76.7864348,47.6901059 76.7864348,47.6598941 76.79,47.63 C77.3677146,45.7091713 77.0203968,43.6289593 75.85,42 L71.23,35.42 C70.5845623,34.473251 69.6412854,33.769313 68.55,33.42 L59,30.72 C58.380218,30.5348186 57.7368552,30.4405037 57.09,30.44 C54.4425086,30.4406712 52.0324306,31.9669242 50.9,34.36 L47.77,40.94 L47.77,8.94 C47.8057266,6.50344868 46.5388546,4.23292252 44.4466025,2.98370675 C42.3543505,1.73449098 39.7545812,1.69637119 37.6266025,2.88370675 C35.4986239,4.0710423 34.1657266,6.30344868 34.13,8.74 L33.69,38.36 L29.83,20.19 L26.57,5.87 C25.8209105,2.25074735 22.403918,-0.175622756 18.74,0.31 C16.8977293,0.610486187 15.2595567,1.65400248 14.2084928,3.1965711 C13.1574289,4.73913971 12.7856213,6.64552233 13.18,8.47 L19.66,40.74 L13.66,29 C12.0949402,25.6534947 8.19864283,24.0993536 4.76,25.45 C3.03797983,26.1760764 1.69001695,27.5779241 1.03196084,29.3270674 C0.373904742,31.0762108 0.463589309,33.0189248 1.28,34.7 L12.21,55.59 Z M3.87,30.44 C4.23459365,29.4608898 4.9872023,28.6757164 5.95,28.27 C7.91452624,27.5635934 10.0919398,28.4868168 10.95,30.39 L20.81,49.65 C21.2399686,50.4826566 22.2198592,50.8684798 23.1020961,50.5524924 C23.984333,50.236505 24.4964472,49.3162961 24.3,48.4 L16.16,7.88 C15.9285341,6.86198261 16.1295771,5.79356129 16.7152283,4.92929941 C17.3008794,4.06503753 18.2186967,3.48232513 19.25,3.32 C21.3198729,3.09503125 23.2161875,4.49552047 23.61,6.54 L26.87,20.86 L32.77,48.2 C33.0764091,49.0734454 33.942139,49.6225129 34.8628654,49.5273474 C35.7835917,49.4321819 36.5187171,48.7176513 36.64,47.8 L37.22,8.74 C37.2419271,6.66800139 38.9278854,4.99988398 41,5 L41.07,5 C43.1553814,5.0383366 44.8178686,6.7544524 44.79,8.84 L44.79,46.12 C44.7902337,46.9946142 45.3966665,47.7522399 46.2499999,47.9440002 C47.1033334,48.1357606 47.9755998,47.7104268 48.35,46.92 L53.69,35.65 C54.4840509,33.9571653 56.401367,33.1050248 58.19,33.65 L67.68,36.44 C68.1127859,36.575163 68.4888903,36.8493325 68.75,37.22 L73.38,43.81 C74.4312611,45.2463176 74.1968294,47.2503279 72.8424442,48.40523 C71.488059,49.5601321 69.4721804,49.474991 68.22,48.21 L64.17,44 C63.3438379,43.1321517 62.1982087,42.6406515 61,42.64 C58.9427453,42.6051517 57.1360348,44.0006798 56.65,46 L54,56.52 C53.6738253,57.8240712 53.8864839,59.2045496 54.59,60.35 L57.46,64.61 L56.78,64.4 C56.4376189,64.2945118 56.103397,64.1641653 55.78,64.01 C55.2905374,63.7374684 54.6908431,63.756265 54.2194088,64.0589146 C53.7479744,64.3615642 53.4812331,64.8989984 53.5252649,65.457486 C53.5692966,66.0159735 53.9169626,66.5049672 54.43,66.73 C56.3119254,67.6943829 58.456371,68.0207879 60.54,67.66 L60.69,67.66 C62.0645457,67.3967647 63.3628676,66.829603 64.49,66 L67,64.11 C68.2456977,63.1546625 68.9831486,61.6797607 69,60.11 L69,58.3 C69.0052928,56.3568744 69.7829631,54.4955864 71.1616469,53.1262814 C72.5403306,51.7569765 74.4068836,50.9920291 76.35,51 L76.4,51 C77.5045695,51 78.4,51.8954305 78.4,53 L78.4,66.68 C78.403099,67.2165079 78.1905106,67.7317645 77.81,68.11 L60.63,84.32 C59.7183972,85.2005741 59.0087353,86.2684788 58.55,87.45 C57.5671482,90.4315535 54.6808434,92.3612545 51.55,92.13 C50.9556435,92.032619 50.3598479,92.2953562 50.0309267,92.7998893 C49.7020056,93.3044223 49.7020056,93.9555777 50.0309267,94.4601107 C50.3598479,94.9646438 50.9556435,95.227381 51.55,95.13 C53.3511259,95.1592339 55.1312372,94.7399799 56.73,93.91 L57.1,93.72 L57.1,100.72 C57.1,101.824569 56.2045695,102.72 55.1,102.72 L26.86,102.72 C25.7554305,102.72 24.86,101.824569 24.86,100.72 L24.86,93.63 L25.23,93.84 C26.8032567,94.7109572 28.5717505,95.1685635 30.37,95.17 C30.7784435,95.1753389 31.1722755,95.0181878 31.4648399,94.7331251 C31.7574042,94.4480624 31.92473,94.0584444 31.93,93.65 C31.93,92.8105272 31.2494728,92.13 30.41,92.13 C25,92.13 22.54,87.31 21.41,83.25 C20.4525974,79.3816464 19.7840887,75.4474723 19.41,71.48 C19.18,69.57 18.92,67.41 18.59,65.28 C17.9634452,61.4078298 16.7139372,57.6626828 14.89,54.19 L4,33.35 C3.56290579,32.4379984 3.51596934,31.3873439 3.87,30.44 Z M68.31,51.78 L68.12,52.03 C66.7434481,53.8302065 65.9983714,56.0338059 66,58.3 L66,60.07 C66.0008085,60.7048022 65.7002077,61.3022929 65.19,61.68 L62.67,63.58 C62.2186408,63.9096486 61.7239823,64.1754854 61.2,64.37 L61.02,64.44 L57.24,58.82 L57.15,58.69 C56.9135561,58.2517106 56.8596508,57.7378132 57,57.26 L59.64,46.74 C59.7876937,46.267233 60.1664875,45.9025591 60.6445214,45.7729228 C61.1225554,45.6432865 61.6336911,45.7666236 62,46.1 L66,50.32 C66.5772643,50.8874868 67.2555989,51.341971 68,51.66 L68.31,51.78 Z" id="Shape"></path>
            </g>
        </g>
    </g>
</svg>