<?xml version="1.0" encoding="UTF-8"?>
<svg width="106px" height="106px" viewBox="0 0 106 106" version="1.1" xmlns="http://www.w3.org/2000/svg" xmlns:xlink="http://www.w3.org/1999/xlink">
    <!-- Generator: Sketch 52.6 (67491) - http://www.bohemiancoding.com/sketch -->
    <title>Pech</title>
    <desc>Created with Sketch.</desc>
    <g id="Page-1" stroke="none" stroke-width="1" fill="none" fill-rule="evenodd">
        <g id="Главный-экран-/-промокод" transform="translate(-760.000000, -2700.000000)" fill="#FFCB1F" fill-rule="nonzero">
            <g id="Pech" transform="translate(760.000000, 2700.000000)">
                <path d="M99.6,85.6 L99.6,81 C99.6,47.9 82.1,26.3 75.9,19.7 C76.3,19 76.8,18.3 77.4,17.6 C79.4,14.9 81.6,11.8 81.6,8.4 L81.6,1.6 C81.6,0.8 80.9,0.1 80.1,0.1 L25.9,0.1 C25.1,0.1 24.4,0.8 24.4,1.6 L24.4,8.4 C24.4,11.7 26.6,14.8 28.6,17.6 C29.1,18.3 29.6,19.1 30.1,19.7 C22.7,27.6 6.2,48.8 6.2,81 L6.2,85.6 C2.6,87.3 0.2,91.1 0.2,95.3 L0.2,104.3 C0.2,105.1 0.9,105.8 1.7,105.8 L104.4,105.8 C105.2,105.8 105.9,105.1 105.9,104.3 L105.9,95.3 C105.8,91.3 103.3,87.4 99.6,85.6 Z M27.4,8.4 L27.4,3.1 L78.5,3.1 L78.5,8.4 C78.5,10.8 76.7,13.3 74.9,15.8 C74.3,16.7 73.7,17.5 73.1,18.4 L32.8,18.4 C32.3,17.6 31.7,16.7 31,15.8 C29.3,13.4 27.4,10.8 27.4,8.4 Z M102.8,102.8 L3.2,102.8 L3.2,95.3 C3.2,92.1 5.3,89 8.2,88 C8.8,87.8 9.2,87.2 9.2,86.6 L9.2,81 C9.2,49.4 25.5,28.9 32.5,21.5 C32.5,21.5 32.6,21.4 32.6,21.4 L73.4,21.4 C79,27.3 96.6,48.4 96.6,81 L96.6,86.6 C96.6,87.2 97,87.8 97.6,88 C100.6,89 102.8,92.1 102.8,95.3 L102.8,102.8 Z" id="Shape"></path>
                <path d="M68.3,31 C68,30.7 67.6,30.5 67.2,30.5 L38.8,30.5 C38.4,30.5 38,30.7 37.7,31 L36.8,32 C24.9,45.5 18.4,63 18.4,81 L18.4,92.1 C18.4,92.9 19.1,93.6 19.9,93.6 L86.1,93.6 C86.9,93.6 87.6,92.9 87.6,92.1 L87.6,81 C87.6,62.9 81.1,45.5 69.2,31.9 L68.3,31 Z M84.6,90.6 L21.4,90.6 L21.4,81 C21.4,63.7 27.7,47 39,34 L39.5,33.5 L66.5,33.5 L67,34 C78.3,47 84.6,63.7 84.6,81 L84.6,90.6 Z" id="Shape"></path>
                <path d="M35.9,81.1 C40.1,81.1 43.4,77.7 43.4,73.6 C43.4,70.3 40.7,60.4 35.9,60.4 C31,60.4 28.4,70.3 28.4,73.6 C28.4,77.7 31.8,81.1 35.9,81.1 Z M35.9,63.3 C37.7,63.3 40.4,70.1 40.4,73.5 C40.4,76 38.4,78 35.9,78 C33.4,78 31.4,76 31.4,73.5 C31.4,70.1 34.2,63.3 35.9,63.3 Z" id="Shape"></path>
                <path d="M53,81.1 C57.2,81.1 60.5,77.7 60.5,73.6 C60.5,70.3 57.8,60.4 53,60.4 C48.1,60.4 45.5,70.3 45.5,73.6 C45.5,77.7 48.8,81.1 53,81.1 Z M53,63.3 C54.8,63.3 57.5,70.1 57.5,73.5 C57.5,76 55.5,78 53,78 C50.5,78 48.5,76 48.5,73.5 C48.5,70.1 51.2,63.3 53,63.3 Z" id="Shape"></path>
                <path d="M62.5,73.5 C62.5,77.7 65.9,81 70,81 C74.2,81 77.5,77.6 77.5,73.5 C77.5,70.2 74.8,60.3 70,60.3 C65.2,60.3 62.5,70.3 62.5,73.5 Z M70.1,63.3 C71.9,63.3 74.6,70.1 74.6,73.5 C74.6,76 72.6,78 70.1,78 C67.6,78 65.6,76 65.6,73.5 C65.5,70.1 68.3,63.3 70.1,63.3 Z" id="Shape"></path>
                <path d="M25.1,85.9 C25.1,86.7 25.8,87.4 26.6,87.4 L79.4,87.4 C80.2,87.4 80.9,86.7 80.9,85.9 C80.9,85.1 80.2,84.4 79.4,84.4 L26.6,84.4 C25.8,84.4 25.1,85.1 25.1,85.9 Z" id="Shape"></path>
            </g>
        </g>
    </g>
</svg>