<?xml version="1.0" encoding="UTF-8"?>
<svg width="116px" height="94px" viewBox="0 0 116 94" version="1.1" xmlns="http://www.w3.org/2000/svg" xmlns:xlink="http://www.w3.org/1999/xlink">
    <!-- Generator: Sketch 52.6 (67491) - http://www.bohemiancoding.com/sketch -->
    <title>Rst</title>
    <desc>Created with Sketch.</desc>
    <g id="Page-1" stroke="none" stroke-width="1" fill="none" fill-rule="evenodd">
        <g id="Главный-экран-/-промокод" transform="translate(-139.000000, -2706.000000)" fill="#FFCB1F" fill-rule="nonzero">
            <g id="Rst" transform="translate(139.000000, 2706.000000)">
                <path d="M113.79,35.08 L86.12,35.08 C85.2915729,35.08 84.62,35.7515729 84.62,36.58 L84.62,45.35 C84.62,46.1784271 85.2915729,46.85 86.12,46.85 L91.72,46.85 L91.72,57.08 C91.72,57.9084271 92.3915729,58.58 93.22,58.58 L106.68,58.58 C107.508427,58.58 108.18,57.9084271 108.18,57.08 L108.18,46.85 L113.78,46.85 C114.608427,46.85 115.28,46.1784271 115.28,45.35 L115.28,36.58 C115.280018,35.7554625 114.614519,35.0854969 113.79,35.08 Z M112.29,43.85 L106.69,43.85 C105.861573,43.85 105.19,44.5215729 105.19,45.35 L105.19,55.58 L94.72,55.58 L94.72,45.35 C94.72,44.5215729 94.0484271,43.85 93.22,43.85 L87.62,43.85 L87.62,38.08 L112.29,38.08 L112.29,43.85 Z" id="Shape"></path>
                <path d="M54.87,93.25 C75.23,93.25 91.99,85.34 100.17,80.63 C100.634399,80.3618791 100.920344,79.866242 100.92,79.33 L100.92,61.5 C100.920979,60.9594699 100.631063,60.4602167 100.161115,60.1931537 C99.6911672,59.9260908 99.1138774,59.9325265 98.65,60.21 C93.35,63.36 82.84,68.66 71.96,68.66 C56.96,68.66 50.18,58.01 50.16,47.45 C50.14,36.89 57.3,26 71,25.93 L71.16,25.93 C81.66,25.93 91.95,30.05 98.74,33.52 C99.2054835,33.7567448 99.7605942,33.7343508 100.205495,33.4608798 C100.650396,33.1874087 100.921041,32.7022279 100.92,32.18 L100.92,14.26 C100.9215,13.7103191 100.622221,13.2038458 100.14,12.94 C89.97,7.38 74.14,0.74 56.33,0.74 C30.68,0.75 0.71,12.92 0.71,47.2 C0.71,81.15 28.69,93.25 54.87,93.25 Z M19.61,14.25 C28.84,7.48 41.89,3.76 56.34,3.76 C73.05,3.76 88.05,9.86 97.93,15.16 L97.93,29.78 C90.93,26.44 81.18,22.94 71.17,22.94 L71,22.94 C55.32,23 47.15,35.32 47.17,47.45 C47.17,59.11 54.97,71.65 71.97,71.65 C82.15,71.65 91.97,67.36 97.97,64.08 L97.97,78.46 C89.8,83.06 73.97,90.25 54.92,90.25 C40.28,90.25 27.81,86.69 18.87,79.96 C8.8,72.42 3.71,61.39 3.71,47.2 C3.71,33.26 9.21,21.87 19.61,14.25 Z" id="Shape"></path>
                <path d="M22.37,72.47 C23.1984271,72.47 23.87,71.7984271 23.87,70.97 L23.87,38.87 C23.852303,36.5528016 25.3615144,34.5002216 27.5785862,33.8261935 C29.7956581,33.1521654 32.1919381,34.0174087 33.4669669,35.9523565 C34.7419957,37.8873044 34.5917475,40.4305758 33.0977619,42.2019392 C31.6037763,43.9733027 29.1222885,44.5503834 27,43.62 C26.5385423,43.4304182 26.0130271,43.482666 25.5979311,43.7593966 C25.1828351,44.0361273 24.9324851,44.5011229 24.93,45 L24.93,53.51 C24.9229516,54.2397485 25.442131,54.8686732 26.16,55 C32.9465553,56.2548322 39.7920445,53.1238966 43.2811847,47.1692482 C46.7703249,41.2145997 46.1554398,33.7122404 41.7433017,28.405172 C37.3311636,23.0981036 30.067235,21.1235603 23.5755624,23.4666614 C17.0838897,25.8097626 12.7555519,31.9684128 12.75,38.87 L12.75,62.87 C12.7665171,68.1728824 17.0670947,72.4645191 22.37,72.47 Z M15.75,38.87 C15.751974,33.3442348 19.1481509,28.387212 24.3003552,26.3899948 C29.4525595,24.3927776 35.3024655,25.7656189 39.0283199,29.8463166 C42.7541744,33.9270143 43.5906413,39.8773434 41.1342436,44.8271106 C38.6778459,49.7768779 33.4331577,52.7093407 27.93,52.21 L27.93,47 C28.3042742,47.0536051 28.6819066,47.0803401 29.06,47.08 C33.5832121,47.08 37.25,43.4132121 37.25,38.89 C37.25,34.3667879 33.5832121,30.7 29.06,30.7 C24.5367879,30.7 20.87,34.3667879 20.87,38.89 L20.87,69.3 C17.8751827,68.5957455 15.7563414,65.926502 15.75,62.85 L15.75,38.87 Z" id="Shape"></path>
            </g>
        </g>
    </g>
</svg>