<?xml version="1.0" encoding="UTF-8"?>
<svg width="108px" height="106px" viewBox="0 0 108 106" version="1.1" xmlns="http://www.w3.org/2000/svg" xmlns:xlink="http://www.w3.org/1999/xlink">
    <!-- Generator: Sketch 52.6 (67491) - http://www.bohemiancoding.com/sketch -->
    <title>Testo</title>
    <desc>Created with Sketch.</desc>
    <g id="Page-1" stroke="none" stroke-width="1" fill="none" fill-rule="evenodd">
        <g id="Главный-экран-/-промокод" transform="translate(-759.000000, -2544.000000)" fill="#FFCB1F" fill-rule="nonzero">
            <g id="Testo" transform="translate(759.000000, 2544.000000)">
                <path d="M103.7,51.1 L103.3,50.6 C100.3,46.8 99.2,42 100.3,37.3 L100.5,36.6 C101.8,31 100.5,25.3 96.9,20.8 L95.5,21.7 L102.1,17.6 C104.2,16.3 105.6,14.3 106.1,11.9 C106.6,9.5 106.2,7.1 104.9,5 C103.2,2.3 100.3,0.7 97.2,0.7 C97.2,0.7 97.2,0.7 97.2,0.7 C94,0.7 91.2,2.3 89.5,5 L82.8,15.7 L84,13.7 C83.4,13.6 82.7,13.6 82.1,13.6 L81.4,13.6 C79.4,13.6 77.5,13.2 75.7,12.5 C75.5,12.3 75.2,12.2 75,12.2 C72.7,11.2 70.7,9.7 69.1,7.7 L68.7,7.2 C65.1,2.7 59.8,0.1 54,0.1 C48.2,0.1 42.9,2.7 39.3,7.2 L38.9,7.7 C35.9,11.5 31.4,13.6 26.6,13.6 L25.9,13.6 C20.2,13.6 14.8,16.2 11.2,20.7 C7.6,25.2 6.3,31 7.6,36.6 L7.8,37.3 C8.9,42 7.8,46.9 4.8,50.6 L4.4,51.1 C0.7,55.6 -0.6,61.4 0.7,67 C2,72.6 5.7,77.2 10.8,79.7 L11.4,80 C12.8,80.7 14.1,81.6 15.3,82.7 L6,88.5 C3.9,89.8 2.5,91.8 2,94.2 C1.5,96.6 1.9,99 3.2,101.1 C4.5,103.2 6.5,104.6 8.9,105.1 C11.3,105.6 13.7,105.2 15.8,103.9 C17,103.2 18,102.2 18.7,101 L22,95.8 C23.8,99.4 26.8,102.3 30.5,104 C33.1,105.2 35.9,105.9 38.6,105.9 C41.3,105.9 44.2,105.3 46.7,104 L47.3,103.7 C51.6,101.6 56.6,101.6 61,103.7 L61.6,104 C66.8,106.5 72.7,106.5 77.9,104 C83.1,101.5 86.8,96.9 88.1,91.3 L88.3,90.6 C89.4,85.9 92.5,82 96.8,79.9 L97.4,79.6 C102.6,77.1 106.3,72.5 107.6,66.9 C108.6,61.4 107.3,55.6 103.7,51.1 Z M92.4,6.8 C94.1,4.1 97.6,3.3 100.3,5 C103,6.7 103.8,10.2 102.1,12.9 C101.6,13.6 101,14.2 100.3,14.7 L86.5,23.3 L83.8,20.6 L92.4,6.8 Z M90.7,32.3 L90.3,32.7 L33.3,89.7 L17.3,73.7 L17.7,73.3 L74.7,16.3 L90.7,32.3 Z M82.1,16.6 C82.1,16.6 82.2,16.6 82.1,16.6 L81.3,18.1 L79.7,16.5 C80.3,16.5 80.8,16.6 81.4,16.6 L82.1,16.6 Z M12.7,77.3 L12.1,77 C7.8,74.9 4.6,71 3.6,66.3 C2.6,61.6 3.6,56.7 6.6,53 L7,52.5 C10.6,48 11.9,42.2 10.6,36.6 L10.4,35.9 C9.3,31.2 10.4,26.3 13.4,22.6 C16.4,18.8 20.9,16.7 25.7,16.7 L26.4,16.7 C32.1,16.7 37.5,14.1 41.1,9.6 L41.5,9.1 C44.5,5.3 49,3.2 53.8,3.2 C58.6,3.2 63.1,5.4 66.1,9.1 L66.5,9.6 C68,11.5 69.8,13 71.8,14.2 L13.7,72.5 C13,73.2 13,74.2 13.7,74.9 L19.1,80.3 L17.9,81 C16.5,79.5 14.7,78.2 12.7,77.3 Z M15.6,99.2 C14.5,100.9 12.7,101.9 10.8,101.9 C9.8,101.9 8.7,101.6 7.8,101 C5.1,99.3 4.3,95.8 6,93.1 C6.4,92.4 7.1,91.8 7.8,91.3 L21.6,82.7 L24.3,85.4 L15.6,99.2 Z M104.4,66.3 C103.3,71 100.2,74.9 95.9,77 L95.3,77.3 C90.1,79.8 86.4,84.4 85.2,90 L85,90.7 C83.9,95.4 80.8,99.3 76.5,101.4 C72.2,103.5 67.2,103.5 62.8,101.4 L62.2,101.1 C57,98.6 51.1,98.6 45.9,101.1 L45.3,101.4 C41,103.5 36,103.5 31.6,101.4 C27.9,99.6 25.1,96.5 23.7,92.8 L26.7,88 L32.1,93.4 C32.8,94.1 33.8,94.1 34.5,93.4 L94.3,33.6 C94.6,33.3 94.8,32.9 94.8,32.4 C94.8,31.9 94.6,31.5 94.3,31.2 L88.9,25.8 L94.3,22.5 C94.3,22.6 94.4,22.6 94.5,22.7 C97.5,26.5 98.6,31.3 97.5,36 L97.3,36.7 C96,42.3 97.3,48.1 100.9,52.6 L101.3,53.1 C104.4,56.7 105.5,61.6 104.4,66.3 Z" id="Shape"></path>
                <path d="M66.8,45.8 L31.9,80.7 C31.3,81.3 31.3,82.2 31.9,82.8 C32.2,83.1 32.6,83.2 33,83.2 C33.4,83.2 33.8,83.1 34.1,82.8 L69,47.9 C69.6,47.3 69.6,46.4 69,45.8 C68.4,45.2 67.4,45.2 66.8,45.8 Z" id="Shape"></path>
                <path d="M72.4,42.3 C72.7,42.6 73.1,42.7 73.5,42.7 C73.9,42.7 74.3,42.6 74.6,42.3 L82.2,34.7 C82.8,34.1 82.8,33.2 82.2,32.6 C81.6,32 80.7,32 80.1,32.6 L72.5,40.2 C71.9,40.8 71.9,41.7 72.4,42.3 Z" id="Shape"></path>
            </g>
        </g>
    </g>
</svg>